# xmcd
#
# Track frame offsets:
#	150
#	9649
#	18699
#	25834
#	36434
#	46339
#	57116
#	68880
#	79811
#	92516
#	102422
#
# Disc length: 1538 seconds
#
# Revision: 0
# Processed by: cddbd v1.5.2PL0 Copyright (c) Steve Scherf et al.
# Submitted via: EasyCDDAExtractor 16.0.1.1
#
DISCID=8906000b
DTITLE=The Browns - Sing The Big Ones From The Country
DYEAR=1967
DGENRE=Country
TTITLE0=Where Does The Good Times Go
TTITLE1=All Of Me Belongs To You
TTITLE2=Ride Ride Ride
TTITLE3=Once
TTITLE4=Happy Tracks
TTITLE5=Walk Through This World With Me
TTITLE6=Country Boy's Dream
TTITLE7=If The Whole World Stopped Lovin'
TTITLE8=I'm A Lonesome Fugitive
TTITLE9=Misty Blue
TTITLE10=Three Bells
EXTD=
EXTT0=
EXTT1=
EXTT2=
EXTT3=
EXTT4=
EXTT5=
EXTT6=
EXTT7=
EXTT8=
EXTT9=
EXTT10=
PLAYORDER=
